<svg width="1em" height="1em" viewBox="0 0 19 16" fill="none" xmlns="http://www.w3.org/2000/svg"><path fill-rule="evenodd" clip-rule="evenodd" d="M18.882 7.281v.141c0 .416-.141.906-.35 1.255-.207.349-.556.63-.905.839 0 .104.019.19.037.278.019.087.037.175.037.278 0 .98-.348 1.886-.905 2.658-1.047 1.396-2.725 2.235-4.402 2.658-.906.208-1.82.349-2.725.349-1.329 0-2.724-.282-3.98-.772-1.328-.557-2.582-1.396-3.355-2.65a4.374 4.374 0 01-.63-2.235c0-.208 0-.35.066-.557a2.997 2.997 0 01-.839-.765c-.349-.415-.49-.838-.49-1.254 0-.631.283-1.188.698-1.604.423-.438.98-.712 1.611-.712h.208c.282 0 .631.074.906.14.282.067.49.209.698.416l.035-.032c.06-.056.116-.109.172-.109 1.33-.764 2.866-1.12 4.403-1.187 0-.765.066-1.537.49-2.235.282-.557.838-.98 1.462-1.188.208-.067.49-.067.698-.067.63 0 1.255.141 1.886.416.282-.416.63-.698 1.046-.839.208-.067.49-.14.772-.14.282 0 .557.066.84.14.415.141.697.416.98.765.207.349.348.772.348 1.188v.208a2.459 2.459 0 01-.698 1.395c-.415.35-.905.557-1.462.557h-.282c-.49-.06-.98-.267-1.396-.69-.349-.35-.557-.906-.557-1.396v-.074c-.49-.208-.98-.416-1.537-.416h-.207c-.416.067-.765.282-.906.631-.282.49-.349 1.121-.349 1.745 1.47.066 3 .415 4.261 1.187 0 0 .067.067.141.067.036-.035.092-.073.149-.11.05-.033.099-.066.133-.098a2.272 2.272 0 011.33-.415c.207 0 .415 0 .63.066.557.208.98.49 1.33.84.326.348.541.838.608 1.328zm-4.053-4.046c-.208-.215-.349-.423-.349-.772 0-.215.074-.423.275-.564a1.48 1.48 0 01.556-.349c.142-.067.216-.067.283-.067.207 0 .49.075.697.282.208.208.35.416.35.698v.075c-.067.282-.142.49-.35.697-.207.141-.415.282-.697.282h-.067a.898.898 0 01-.698-.282zm.98 4.951c.423.557.63 1.188.63 1.886 0 .208 0 .349-.073.483-.141.49-.35.913-.631 1.329a3.901 3.901 0 01-1.047 1.046c-1.255.98-2.791 1.396-4.328 1.537h-.765c-1.536 0-3.073-.282-4.402-1.047a1.241 1.241 0 00-.134-.097c-.056-.038-.113-.075-.148-.11a4.517 4.517 0 01-1.255-1.047c-.356-.35-.63-.84-.772-1.396-.067-.208-.067-.416-.067-.698 0-.623.282-1.321.698-1.952.772-1.047 1.96-1.745 3.215-2.175a10.407 10.407 0 012.932-.416c.765 0 1.537.14 2.235.282.104.033.226.069.348.104.123.035.245.07.35.104 1.261.423 2.45 1.12 3.214 2.167zm1.744-1.253c.067.14.141.349.141.49a.786.786 0 01-.207.556l-.014.026c-.07.133-.136.26-.269.323a6.218 6.218 0 00-1.47-1.885l.075-.024c.19-.06.373-.117.557-.117.282 0 .49 0 .697.14.208.075.35.283.49.49zm-14.18-.539a1.16 1.16 0 00-.415-.092h-.074c-.35 0-.631.14-.84.349-.207.207-.348.49-.348.772v.066c0 .175.047.303.106.463l.035.094c.061.129.128.196.247.314l.035.035c.275-.831.839-1.462 1.396-1.952a4.459 4.459 0 01-.141-.049zm3.423 3.886c-.141 0-.208 0-.349-.066-.275-.067-.49-.208-.624-.423a1.158 1.158 0 01-.207-.698c0-.141 0-.208.066-.35.141-.422.49-.697.906-.838h.208c.349 0 .631.141.839.349.208.14.349.423.349.772v.067c0 .349-.141.63-.35.839-.281.207-.556.348-.838.348zm6.08 1.404c-.067-.067-.208-.067-.35-.067-.066 0-.207 0-.281.067-.84.49-1.745.772-2.725.772a4.596 4.596 0 01-2.093-.49c-.067-.067-.208-.141-.35-.208-.034-.04-.071-.058-.108-.076-.034-.017-.067-.034-.099-.065-.033 0-.069-.017-.104-.034-.035-.016-.07-.033-.104-.033-.067 0-.141 0-.208.067a.894.894 0 00-.247.175l-.035.033c-.067.066-.067.208-.067.349 0 .066 0 .207.067.282l.208.208c.906.63 2.027.905 3.073.905a6.767 6.767 0 003.148-.77l.134-.069a.416.416 0 01.098-.063c.037-.02.073-.038.11-.078.066-.067.14-.14.14-.282v-.14c0-.068 0-.142-.066-.209 0-.134-.068-.201-.132-.265l-.01-.01zm.765-2.592c0-.067 0-.208-.067-.349a1.461 1.461 0 00-.349-.638 1.402 1.402 0 00-.698-.208c-.133 0-.274 0-.415.074a1.08 1.08 0 00-.557.416 1.33 1.33 0 00-.208.698v.207c.067.282.208.557.416.698.207.216.482.282.764.282.141 0 .208 0 .35-.066a1.08 1.08 0 00.556-.416c.141-.208.208-.416.208-.698z" fill="currentColor"></path></svg>
