<svg width="1em" height="1em" viewBox="0 0 20 19" fill="none" xmlns="http://www.w3.org/2000/svg"><path fill-rule="evenodd" clip-rule="evenodd" d="M6.155.26h7.46c3.015 0 5.533 2.434 5.533 5.449v7.46c0 3.015-2.518 5.532-5.533 5.532h-7.46c-3.015 0-5.448-2.517-5.448-5.532V5.71A5.44 5.44 0 016.155.26zM13.7 16.774a3.576 3.576 0 003.603-3.604V5.71A3.576 3.576 0 0013.7 2.105H6.156A3.576 3.576 0 002.55 5.709v7.46a3.576 3.576 0 003.604 3.604H13.7z" fill="currentColor"></path><path fill-rule="evenodd" clip-rule="evenodd" d="M5.152 9.48a4.77 4.77 0 014.775-4.774c2.593 0 4.774 2.089 4.774 4.775a4.772 4.772 0 01-4.774 4.782c-2.678 0-4.775-2.18-4.775-4.782zm1.836-.008c0 1.6 1.347 2.94 2.939 2.94 1.591 0 2.93-1.34 2.939-2.94 0-1.591-1.34-2.93-2.94-2.93-1.6 0-2.938 1.339-2.938 2.93z" fill="currentColor"></path><path d="M15.798 4.707c0 .674-.505 1.17-1.17 1.17-.666 0-1.171-.505-1.171-1.17 0-.674.505-1.17 1.17-1.17.666.075 1.17.58 1.17 1.17z" fill="currentColor"></path></svg>
