<svg width="1em" height="1em" viewBox="0 0 20 16" fill="none" xmlns="http://www.w3.org/2000/svg"><path fill-rule="evenodd" clip-rule="evenodd" d="M1.265 6.84L18.124.264a.877.877 0 011.162 1.011l-2.91 13.741a.95.95 0 01-.158.351.898.898 0 01-1.262.193l-4.346-3.193-2.215 2.265a.738.738 0 01-1.229-.293L5.595 9.265l-4.28-1.262a.61.61 0 01-.05-1.162zm6.862 3.412l7.857-6.93c.033-.05.05-.116.025-.175a.215.215 0 00-.25-.15L6.546 8.73a.398.398 0 00-.209.477l1.179 3.987c.008.025.033.05.058.058.05.017.092-.008.11-.058l.3-2.675c.017-.1.067-.2.142-.267z" fill="currentColor"></path></svg>
