<svg width="1em" height="1em" viewBox="0 0 20 18" fill="none" xmlns="http://www.w3.org/2000/svg"><path fill-rule="evenodd" clip-rule="evenodd" d="M3.143.277A2.055 2.055 0 00.886 2.114 2.049 2.049 0 002.723 4.37c.128.01.247.01.365 0a2.06 2.06 0 100-4.102h.055v.01zm-2 17.589h3.946V5.996H1.142v11.87zm18.172.01v-6.808c0-3.663-1.946-5.335-4.55-5.345a3.929 3.929 0 00-3.554 1.947V5.998H7.264c.055 1.114 0 11.868 0 11.868h3.965v-6.624c-.009-.32.028-.649.137-.96a2.167 2.167 0 012.01-1.443c1.426 0 1.992 1.087 1.992 2.686v6.35h3.947z" fill="currentColor"></path></svg>
