<svg width="50" height="39" viewBox="0 0 50 39" fill="none" xmlns="http://www.w3.org/2000/svg"><path d="M11.432 38.504C8.072 38.504 5.432 37.208 3.512 34.616C1.592 32.024 0.632 28.664 0.632 24.536C0.632 19.736 1.88 15.128 4.376 10.712C6.872 6.29599 10.856 2.79199 16.328 0.199993L22.376 5.816C18.44 7.16 15.272 9.224 12.872 12.008C10.472 14.696 8.936 17.528 8.264 20.504L8.84 20.792C9.224 20.504 9.704 20.264 10.28 20.072C10.856 19.88 11.72 19.784 12.872 19.784C14.6 19.784 16.328 20.552 18.056 22.088C19.88 23.528 20.792 25.784 20.792 28.856C20.792 31.448 19.88 33.704 18.056 35.624C16.232 37.544 14.024 38.504 11.432 38.504ZM38.504 38.504C35.144 38.504 32.504 37.208 30.584 34.616C28.664 32.024 27.704 28.664 27.704 24.536C27.704 19.736 28.952 15.128 31.448 10.712C33.944 6.29599 37.928 2.79199 43.4 0.199993L49.448 5.816C45.512 7.16 42.344 9.224 39.944 12.008C37.544 14.696 36.008 17.528 35.336 20.504L35.912 20.792C36.296 20.504 36.776 20.264 37.352 20.072C37.928 19.88 38.792 19.784 39.944 19.784C41.672 19.784 43.4 20.552 45.128 22.088C46.952 23.528 47.864 25.784 47.864 28.856C47.864 31.448 46.952 33.704 45.128 35.624C43.304 37.544 41.096 38.504 38.504 38.504Z" fill="url(#paint0_linear_2911_530)"></path><defs><linearGradient id="paint0_linear_2911_530" x1="-7" y1="39" x2="43.0648" y2="80.7218" gradientUnits="userSpaceOnUse"><stop stop-color="#2D88FF"></stop><stop offset="0.510417" stop-color="#AB4AE7"></stop><stop offset="1" stop-color="#D14AE7"></stop></linearGradient></defs></svg>
