<svg width="1em" height="1em" viewBox="0 0 20 18" fill="none" xmlns="http://www.w3.org/2000/svg"><path fill-rule="evenodd" clip-rule="evenodd" d="M4.143 17.044a.698.698 0 00.577.285c.225 0 .434-.1.625-.192h.002l3.478-2.274a12.8 12.8 0 001.27.067c5.083 0 9.22-3.286 9.22-7.323 0-4.038-4.137-7.323-9.22-7.323C5.013.284.875 3.57.875 7.607c0 2.374 1.43 4.572 3.837 5.943l-.619 2.541c-.067.218-.184.627.05.953zM2.096 7.598c0-3.368 3.594-6.11 8.008-6.11s8.017 2.733 8.017 6.102-3.595 6.11-8.008 6.11c-.444 0-.895-.024-1.338-.083l-.226-.025-3.084 2.015.652-2.7-.427-.218C3.442 11.552 2.096 9.647 2.096 7.6z" fill="currentColor"></path><path fill-rule="evenodd" clip-rule="evenodd" d="M9.785 8.585V8.57c0-.1-.041-.193-.1-.26l-.861-2.298a.563.563 0 00-.518-.385.561.561 0 00-.535.368L6.408 9.338c-.083.2.017.426.21.501.2.084.426-.017.5-.209l.268-.669h1.697l.243.652a.384.384 0 00.493.226c.2-.075.3-.3.225-.501l-.259-.753zM7.061 6.053a.383.383 0 00-.385-.384H4.01a.383.383 0 00-.385.384c0 .21.176.385.385.385h.952v3.068c0 .217.176.384.385.384a.389.389 0 00.385-.384v-3.06h.944a.39.39 0 00.385-.393zm1.228.727l-.568 1.404h1.095L8.289 6.78zm4.23 2.298h-1.195V6.052a.384.384 0 00-.385-.384.389.389 0 00-.384.384v3.41c0 .218.175.385.384.385h1.589a.384.384 0 00.384-.384.39.39 0 00-.393-.385zm3.636-2.75l-1.203 1.17 1.245 1.773a.389.389 0 01-.092.543.467.467 0 01-.226.067.382.382 0 01-.317-.167l-1.17-1.672-.351.343v1.12a.389.389 0 01-.385.385.383.383 0 01-.385-.385V8.326a.342.342 0 010-.183V6.044c0-.209.176-.384.385-.384.209 0 .384.167.384.384v1.263l1.58-1.53c.15-.15.393-.15.544.008.15.15.142.393-.009.544z" fill="currentColor"></path></svg>
